<?xml version="1.0" encoding="UTF-8" standalone="no"?>
<!-- Created with Inkscape (http://www.inkscape.org/) -->

<svg
   xmlns:dc="http://purl.org/dc/elements/1.1/"
   xmlns:cc="http://creativecommons.org/ns#"
   xmlns:rdf="http://www.w3.org/1999/02/22-rdf-syntax-ns#"
   xmlns:svg="http://www.w3.org/2000/svg"
   xmlns="http://www.w3.org/2000/svg"
   xmlns:sodipodi="http://sodipodi.sourceforge.net/DTD/sodipodi-0.dtd"
   xmlns:inkscape="http://www.inkscape.org/namespaces/inkscape"
   sodipodi:docname="EgillAriboxVERK.svg"
   id="svg8"
   version="1.1"
   viewBox="0 0 348.79999 295.6423"
   height="295.6423mm"
   width="348.79999mm"
   inkscape:version="0.92.4 (5da689c313, 2019-01-14)">
  <defs
     id="defs2">
    <inkscape:path-effect
       effect="bspline"
       id="path-effect985"
       is_visible="true"
       weight="33.333333"
       steps="2"
       helper_size="0"
       apply_no_weight="true"
       apply_with_weight="true"
       only_selected="false" />
    <inkscape:path-effect
       effect="bspline"
       id="path-effect936"
       is_visible="true"
       weight="33.333333"
       steps="2"
       helper_size="0"
       apply_no_weight="true"
       apply_with_weight="true"
       only_selected="false" />
    <inkscape:perspective
       sodipodi:type="inkscape:persp3d"
       inkscape:vp_x="0 : 148.5 : 1"
       inkscape:vp_y="0 : 1000 : 0"
       inkscape:vp_z="210 : 148.5 : 1"
       inkscape:persp3d-origin="105 : 99 : 1"
       id="perspective916" />
  </defs>
  <sodipodi:namedview
     id="base"
     pagecolor="#ffffff"
     bordercolor="#666666"
     borderopacity="1.0"
     inkscape:pageopacity="0.0"
     inkscape:pageshadow="2"
     inkscape:zoom="0.7"
     inkscape:cx="616.88478"
     inkscape:cy="555.74663"
     inkscape:document-units="mm"
     inkscape:current-layer="layer1"
     showgrid="false"
     inkscape:window-width="1920"
     inkscape:window-height="1001"
     inkscape:window-x="-9"
     inkscape:window-y="-9"
     inkscape:window-maximized="1" />
  <metadata
     id="metadata5">
    <rdf:RDF>
      <cc:Work
         rdf:about="">
        <dc:format>image/svg+xml</dc:format>
        <dc:type
           rdf:resource="http://purl.org/dc/dcmitype/StillImage" />
        <dc:title></dc:title>
      </cc:Work>
    </rdf:RDF>
  </metadata>
  <g
     inkscape:label="Layer 1"
     inkscape:groupmode="layer"
     id="layer1"
     transform="translate(-0.5,-0.5)">
    <path
       id="path815"
       inkscape:label="part"
       style="fill:none;stroke:#000000;stroke-width:1"
       d="m 48.2,148.5 h 11.427727 v -3.1 h 11.562727 v 3.1 h 11.382728 v -3.1 h 11.562727 v 3.1 h 11.382731 v -3.1 h 11.56272 v 3.1 h 11.38273 v -3.1 h 11.56273 v 3.1 h 11.38273 v -3.1 h 11.56272 v 3.1 H 174.4"
       inkscape:connector-curvature="0" />
    <path
       id="path817"
       inkscape:label="part"
       style="fill:none;stroke:#000000;stroke-width:1"
       d="m 109.75,160.845 v 15.31 h 3.1 v -15.31 h -3.1"
       inkscape:connector-curvature="0" />
    <path
       id="path819"
       inkscape:label="part"
       style="fill:none;stroke:#000000;stroke-width:1"
       d="m 174.4,148.5 v 12.345 h -3.1 v 15.31 h 3.1 V 188.5"
       inkscape:connector-curvature="0" />
    <path
       id="path821"
       inkscape:label="part"
       style="fill:none;stroke:#000000;stroke-width:1"
       d="m 174.4,188.5 h -11.42773 v 3.1 h -11.56272 v -3.1 h -11.38273 v 3.1 h -11.56273 v -3.1 h -11.38273 v 3.1 h -11.56272 v -3.1 H 94.135909 v 3.1 H 82.573182 v -3.1 H 71.190454 v 3.1 H 59.627727 v -3.1 H 48.2"
       inkscape:connector-curvature="0" />
    <path
       id="path823"
       inkscape:label="part"
       style="fill:none;stroke:#000000;stroke-width:1"
       d="m 48.2,188.5 v -12.345 h 3.1 v -15.31 H 48.2 V 148.5"
       inkscape:connector-curvature="0" />
    <path
       id="path825"
       inkscape:label="part"
       style="fill:none;stroke:#000000;stroke-width:1"
       d="M 4.0999999,51.3 H 16.355 v -3.1 h 15.49 v 3.1 H 44.1"
       inkscape:connector-curvature="0" />
    <path
       id="path827"
       inkscape:label="part"
       style="fill:none;stroke:#000000;stroke-width:1"
       d="m 44.1,51.3 v 7.543889 h 3.1 v 10.778889 h -3.1 v 10.598888 h 3.1 v 10.778889 h -3.1 v 10.598885 h 3.1 v 10.77889 h -3.1 v 10.59889 h 3.1 v 10.77889 H 44.1 V 141.3"
       inkscape:connector-curvature="0" />
    <path
       id="path829"
       inkscape:label="part"
       style="fill:none;stroke:#000000;stroke-width:1"
       d="M 44.1,141.3 H 31.845 v 3.1 h -15.49 v -3.1 H 4.0999999"
       inkscape:connector-curvature="0" />
    <path
       id="path831"
       inkscape:label="part"
       style="fill:none;stroke:#000000;stroke-width:1"
       d="m 4.0999999,141.3 v -7.54389 H 1 V 122.97722 H 4.0999999 V 112.37833 H 1 V 101.59944 H 4.0999999 V 91.000555 H 1 V 80.221666 H 4.0999999 V 69.622778 H 1 V 58.843889 H 4.0999999 V 51.3"
       inkscape:connector-curvature="0" />
    <path
       id="path833"
       inkscape:label="part"
       style="fill:none;stroke:#000000;stroke-width:1"
       d="M 1.4963827,202.5423 H 13.751383 v -3.1 h 15.49 v 3.1 h 12.255"
       inkscape:connector-curvature="0" />
    <path
       id="path835"
       inkscape:label="part"
       style="fill:none;stroke:#000000;stroke-width:1"
       d="m 41.496383,202.5423 -12.170833,7.54389 v 0 10.77889 0 10.59889 0 10.77888 0 10.59889 10.77889 0 10.59889 0 10.77889 0 l 12.170833,7.54389"
       inkscape:connector-curvature="0"
       sodipodi:nodetypes="ccccccccccccccccc" />
    <path
       id="path837"
       inkscape:label="part"
       style="fill:none;stroke:#000000;stroke-width:1"
       d="m 41.496383,292.5423 h -12.255 v 3.1 h -15.49 v -3.1 H 1.4963827"
       inkscape:connector-curvature="0" />
    <path
       id="path839"
       inkscape:label="part"
       style="fill:none;stroke:#000000;stroke-width:1"
       d="m 1.4963827,292.5423 v -7.54389 0 -10.77889 0 -10.59889 0 -10.77889 0 -10.59888 0 -10.77889 0 -10.59889 0 -10.77889 0 -7.54389"
       inkscape:connector-curvature="0" />
    <path
       id="path841"
       inkscape:label="part"
       style="fill:none;stroke:#000000;stroke-width:1"
       d="m 48.2,48.2 h 11.517727 v 3.1 h 11.382727 v -3.1 h 11.562728 v 3.1 h 11.382727 v -3.1 h 11.562731 v 3.1 h 11.38272 v -3.1 h 11.56273 v 3.1 h 11.38273 v -3.1 h 11.56273 v 3.1 h 11.38272 V 48.2 H 174.4"
       inkscape:connector-curvature="0" />
    <path
       id="path843"
       inkscape:label="part"
       style="fill:none;stroke:#000000;stroke-width:1"
       d="m 174.4,48.2 v 10.733889 h -3.1 v 10.598889 h 3.1 v 10.778888 h -3.1 v 10.598889 h 3.1 v 10.778885 h -3.1 v 10.59889 h 3.1 v 10.77889 h -3.1 v 10.59889 h 3.1 V 144.4"
       inkscape:connector-curvature="0" />
    <path
       id="path845"
       inkscape:label="part"
       style="fill:none;stroke:#000000;stroke-width:1"
       d="m 174.4,144.4 h -11.51773 v -3.1 h -11.38272 v 3.1 h -11.56273 v -3.1 h -11.38273 v 3.1 h -11.56273 v -3.1 h -11.38272 v 3.1 H 94.045909 v -3.1 H 82.663182 v 3.1 H 71.100454 v -3.1 H 59.717727 v 3.1 H 48.2"
       inkscape:connector-curvature="0" />
    <path
       id="path847"
       inkscape:label="part"
       style="fill:none;stroke:#000000;stroke-width:1"
       d="m 48.2,144.4 v -10.73389 h 3.1 v -10.59889 h -3.1 v -10.77889 h 3.1 V 101.68944 H 48.2 V 90.910555 h 3.1 V 80.311666 H 48.2 V 69.532778 h 3.1 V 58.933889 H 48.2 V 48.2"
       inkscape:connector-curvature="0" />
    <path
       id="path849"
       inkscape:label="part"
       style="fill:none;stroke:#000000;stroke-width:1"
       d="m 178.5,51.3 h 12.255 v -3.1 h 15.49 v 3.1 H 218.5"
       inkscape:connector-curvature="0" />
    <path
       id="path851"
       inkscape:label="part"
       style="fill:none;stroke:#000000;stroke-width:1"
       d="m 218.5,51.3 v 7.543889 h 3.1 v 10.778889 h -3.1 v 10.598888 h 3.1 v 10.778889 h -3.1 v 10.598885 h 3.1 v 10.77889 h -3.1 v 10.59889 h 3.1 v 10.77889 h -3.1 V 141.3"
       inkscape:connector-curvature="0" />
    <path
       id="path853"
       inkscape:label="part"
       style="fill:none;stroke:#000000;stroke-width:1"
       d="m 218.5,141.3 h -12.255 v 3.1 h -15.49 v -3.1 H 178.5"
       inkscape:connector-curvature="0" />
    <path
       id="path855"
       inkscape:label="part"
       style="fill:none;stroke:#000000;stroke-width:1"
       d="m 178.5,141.3 v -7.54389 h -3.1 v -10.77889 h 3.1 v -10.59889 h -3.1 v -10.77889 h 3.1 V 91.000555 h -3.1 V 80.221666 h 3.1 V 69.622778 h -3.1 V 58.843889 h 3.1 V 51.3"
       inkscape:connector-curvature="0" />
    <path
       id="path857"
       inkscape:label="part"
       style="fill:none;stroke:#000000;stroke-width:1"
       d="m 222.6,48.2 h 11.51773 v 3.1 h 11.38272 v -3.1 h 11.56273 v 3.1 h 11.38273 v -5.216667 h 11.56273 V 51.3 h 11.38272 v -5.216667 h 11.56273 V 51.3 h 11.38273 v -3.1 h 11.56272 v 3.1 h 11.38273 V 48.2 H 348.8"
       inkscape:connector-curvature="0"
       sodipodi:nodetypes="cccccccccccccccccccccc" />
    <path
       id="path859"
       inkscape:label="part"
       style="fill:none;stroke:#000000;stroke-width:1"
       d="m 348.8,48.2 v 10.733889 h -3.1 v 10.598889 h 3.1 v 10.778888 h -3.1 v 10.598889 h 3.1 v 10.778885 h -3.1 v 10.59889 h 3.1 v 10.77889 h -3.1 v 10.59889 h 3.1 V 144.4"
       inkscape:connector-curvature="0" />
    <path
       id="path861"
       inkscape:label="part"
       style="fill:none;stroke:#000000;stroke-width:1"
       d="m 348.8,144.4 h -11.51773 v -3.1 h -11.38273 v 3.1 h -11.56272 v -3.1 h -11.38273 v 3.1 h -11.56273 v -3.1 h -11.38272 v 3.1 h -11.56273 v -3.1 h -11.38273 v 3.1 h -11.56273 v -3.1 h -11.38272 v 3.1 H 222.6"
       inkscape:connector-curvature="0" />
    <path
       id="path863"
       inkscape:label="part"
       style="fill:none;stroke:#000000;stroke-width:1"
       d="m 222.6,144.4 v -10.73389 h 3.1 v -10.59889 h -3.1 v -10.77889 h 3.1 v -10.59889 h -3.1 V 90.910555 h 3.1 V 80.311666 h -3.1 V 69.532778 h 3.1 V 58.933889 h -3.1 V 48.2"
       inkscape:connector-curvature="0" />
    <path
       id="path865"
       inkscape:label="part"
       style="fill:none;stroke:#000000;stroke-width:1"
       d="M 48.2,4.0999999 H 59.627727 V 1 H 71.190454 V 4.0999999 H 82.573182 V 1 H 94.135909 V 4.0999999 H 105.51864 V 1 h 11.56272 v 3.0999999 h 11.38273 V 1 h 11.56273 v 3.0999999 h 11.38273 V 1 h 11.56272 V 4.0999999 H 174.4"
       inkscape:connector-curvature="0" />
    <path
       id="path867"
       inkscape:label="part"
       style="fill:none;stroke:#000000;stroke-width:1"
       d="m 109.75,16.445 v 15.31 h 3.1 v -15.31 h -3.1"
       inkscape:connector-curvature="0" />
    <path
       id="path869"
       inkscape:label="part"
       style="fill:none;stroke:#000000;stroke-width:1"
       d="M 174.4,4.0999999 V 16.445 h -3.1 v 15.31 h 3.1 V 44.1"
       inkscape:connector-curvature="0" />
    <path
       id="path871"
       inkscape:label="part"
       style="fill:none;stroke:#000000;stroke-width:1"
       d="m 174.4,44.1 h -11.42773 v 3.1 h -11.56272 v -3.1 h -11.38273 v 3.1 h -11.56273 v -3.1 h -11.38273 v 3.1 H 105.51864 V 44.1 H 94.135909 v 3.1 H 82.573182 V 44.1 H 71.190454 v 3.1 H 59.627727 V 44.1 H 48.2"
       inkscape:connector-curvature="0" />
    <path
       id="path873"
       inkscape:label="part"
       style="fill:none;stroke:#000000;stroke-width:1"
       d="M 48.2,44.1 V 31.755 h 3.1 V 16.445 H 48.2 V 4.0999999"
       inkscape:connector-curvature="0" />
    <text
       xml:space="preserve"
       style="font-style:normal;font-weight:normal;font-size:10.58333302px;line-height:1.25;font-family:sans-serif;letter-spacing:0px;word-spacing:0px;fill:#000000;fill-opacity:1;stroke:none;stroke-width:0.26458332"
       x="258.98416"
       y="93.875145"
       id="text940"><tspan
         sodipodi:role="line"
         id="tspan938"
         x="258.98416"
         y="103.53064"
         style="stroke-width:0.26458332" /></text>
    <text
       xml:space="preserve"
       style="font-style:normal;font-weight:normal;font-size:10.58333302px;line-height:1.25;font-family:sans-serif;letter-spacing:0px;word-spacing:0px;fill:#000000;fill-opacity:1;stroke:none;stroke-width:0.26458332"
       x="274.7887"
       y="169.24405"
       id="text1824"><tspan
         sodipodi:role="line"
         id="tspan1822"
         x="274.7887"
         y="178.89955"
         style="stroke-width:0.26458332" /></text>
    <text
       xml:space="preserve"
       style="font-style:normal;font-weight:normal;font-size:21.97135162px;line-height:1.25;font-family:sans-serif;letter-spacing:0px;word-spacing:0px;fill:#0000ff;fill-opacity:1;stroke:none;stroke-width:0.54928374"
       x="246.85666"
       y="141.21524"
       id="text1843"
       transform="scale(1.1181698,0.89431856)"><tspan
         sodipodi:role="line"
         id="tspan1841"
         x="246.85666"
         y="141.21524"
         style="fill:#0000ff;stroke-width:0.54928374">Egill</tspan></text>
    <text
       xml:space="preserve"
       style="font-style:normal;font-weight:normal;font-size:11.62333202px;line-height:1.25;font-family:sans-serif;letter-spacing:0px;word-spacing:0px;fill:#0000ff;fill-opacity:1;stroke:none;stroke-width:0.29058328"
       x="287.25357"
       y="107.19926"
       id="text1847"
       transform="scale(0.96842509,1.0326044)"><tspan
         sodipodi:role="line"
         id="tspan1845"
         x="287.25357"
         y="107.19926"
         style="fill:#0000ff;stroke-width:0.29058328">SP</tspan></text>
    <path
       style="fill:#0000ff;stroke:none;stroke-width:0.09889376;stroke-opacity:1"
       d="m 242.39677,126.87728 v -0.79277 h -0.69393 -0.69393 v -1.58552 -1.58554 h 1.38786 1.38786 v -0.79276 -0.79276 h -0.69393 -0.69393 v -1.58553 -1.58553 h 0.69393 0.69393 v -0.79277 -0.79277 h -0.69393 -0.69393 v -0.79276 -0.79277 h -0.69393 -0.69393 v -0.79276 -0.79276 h -0.69393 -0.69393 v -0.79277 -0.79276 h -0.69394 -0.69393 v -2.37829 -2.3783 h 0.69393 0.69394 v -1.58552 -1.58553 h 0.69393 0.69393 v -0.79277 -0.79276 h 0.69393 0.69393 v -0.79276 -0.79277 h 0.69393 0.69393 v -0.792769 -0.792772 h -0.69393 -0.69393 v -2.378294 -2.378294 h 0.69393 0.69393 v -0.792758 -0.792767 h -0.69393 -0.69393 v -3.17106 -3.171053 h 0.69393 0.69393 v -1.585534 -1.585526 h 0.69393 0.69393 v -0.792768 -0.792758 h 1.38786 1.38786 v -0.792759 -0.792776 h 6.24538 6.24537 v 0.792776 0.792759 h 1.38786 1.38786 v 0.792758 0.792768 h 0.69393 0.69393 v 1.585526 1.585534 h 0.69394 0.69393 v 3.171053 3.17106 h -0.69393 -0.69394 v 0.792767 0.792758 h 0.69394 0.69393 v 2.378294 2.378294 h -0.69393 -0.69394 v 0.792772 0.792769 h 0.69394 0.69393 v 0.79277 0.79276 h 0.69393 0.69393 v 0.79276 0.79277 h 0.69393 0.69393 v 1.58553 1.58552 h 0.69393 0.69393 v 2.3783 2.37829 h -0.69393 -0.69393 v 0.79276 0.79277 h -0.69393 -0.69393 v 0.79276 0.79276 h -0.69393 -0.69393 v 0.79277 0.79276 h -0.69393 -0.69394 v 0.79277 0.79277 h 0.69394 0.69393 v 1.58553 1.58553 h -0.69393 -0.69394 v 0.79276 0.79276 h 1.38787 1.38786 v 1.58554 1.58552 h -0.69393 -0.69393 v 0.79277 0.79276 h -3.46966 -3.46965 v -0.79276 -0.79277 h -1.38786 -1.38786 v -2.37829 -2.37829 h -0.69393 -0.69393 v -0.79277 -0.79276 h -0.69393 -0.69393 v 0.79276 0.79277 h -0.69393 -0.69394 v 2.37829 2.37829 h -1.38786 -1.38786 v 0.79277 0.79276 h -3.46965 -3.46965 z m 6.9393,-1.58552 v -0.79277 h 0.69393 0.69393 v -0.79277 -0.79277 h -2.77572 -2.77572 v 0.79277 0.79277 h -1.38786 -1.38786 v 0.79277 0.79275 h 3.46965 3.46965 z m 16.65434,0 v -0.79277 h -1.38787 -1.38786 v -0.79277 -0.79277 h -2.77572 -2.77572 v 0.79277 0.79277 h 0.69393 0.69393 v 0.79277 0.79275 h 3.46965 3.46966 z m -8.32717,-12.68425 v -0.79276 h -0.69393 -0.69393 v -0.79277 -0.79276 h 0.69393 0.69393 v -1.58552 -1.58554 h -1.38786 -1.38786 v -0.79275 -0.79277 h 2.08179 2.08179 v 0.79277 0.79275 h 1.38786 1.38786 v -0.79275 -0.79277 h 0.69393 0.69393 v -0.79276 -0.79277 h -1.38786 -1.38786 v 0.79277 0.79276 h -0.69393 -0.69393 v -0.79276 -0.79277 h -2.08179 -2.08179 v 0.79277 0.79276 h -0.69393 -0.69393 v -0.79276 -0.79277 h -2.0818 -2.08179 v 0.79277 0.79276 h -0.69393 -0.69393 v -0.79276 -0.79277 h -1.38786 -1.38786 v 0.79277 0.79276 h 0.69393 0.69393 v 0.79277 0.79275 h 1.38786 1.38786 v -0.79275 -0.79277 h 2.08179 2.0818 v 0.79277 0.79275 h -1.38787 -1.38786 v 1.58554 1.58552 h 0.69393 0.69393 v 0.79276 0.79277 h -0.69393 -0.69393 v 0.79276 0.79277 h 3.46966 3.46965 z m -4.16358,-4.75658 v -0.79277 h 0.69393 0.69393 v 0.79277 0.79277 h -0.69393 -0.69393 z m 5.55144,-6.34211 v -0.79277 h 1.38786 1.38786 v -0.792769 -0.792772 h 1.38786 1.38786 V 97.54499 95.959447 h -0.69393 -0.69393 v -1.585526 -1.585525 h 0.69393 0.69393 v -3.17106 -3.171053 h -0.69393 -0.69393 v -1.585534 -1.585526 h -1.38786 -1.38786 v -0.792768 -0.792758 h -6.24537 -6.24538 v 0.792758 0.792768 h -1.38786 -1.38786 v 1.585526 1.585534 h -0.69393 -0.69393 v 3.171053 3.17106 h 0.69393 0.69393 v 1.585525 1.585526 h -0.69393 -0.69393 v 1.585543 1.585519 h 1.38786 1.38786 v 0.792772 0.792769 h 1.38786 1.38786 v 0.79277 0.79276 h 4.85752 4.85751 z m -9.71503,-1.585539 v -0.792772 h -0.69393 -0.69393 V 98.33775 97.54499 h -0.69393 -0.69393 v -1.585543 -1.585526 h 0.69393 0.69393 v 0.792777 0.792749 h 6.24538 6.24537 v -0.792749 -0.792777 h 0.69393 0.69393 v 1.585526 1.585543 h -0.69393 -0.69393 v 0.79276 0.792759 h -0.69393 -0.69393 v 0.792772 0.792769 h -4.85751 -4.85752 z m 1.38786,-1.585531 V 97.54499 H 250.03 249.33607 v 0.79276 0.792759 h 0.69393 0.69393 z m 2.77573,0 v -0.79276 h -0.69393 -0.69394 v 0.79276 0.792759 h 0.69394 0.69393 z m 2.77572,0 v -0.79276 h -0.69393 -0.69393 v 0.79276 0.792759 h 0.69393 0.69393 z m 2.77572,0 v -0.79276 h -0.69393 -0.69393 v 0.79276 0.792759 h 0.69393 0.69393 z m -6.93931,-4.756587 v -0.792767 h 0.69394 0.69393 V 91.995628 91.20287 h 0.69393 0.69393 v 0.792758 0.792768 h 0.69393 0.69393 v 0.792767 0.792758 h -2.08179 -2.0818 z m -5.55144,-3.17106 v -2.378285 h 2.08179 2.08179 v 2.378285 2.378293 h -2.08179 -2.08179 z m 11.10289,0 v -2.378285 h 2.08179 2.08179 v 2.378285 2.378293 h -2.08179 -2.08179 z"
       id="path1860"
       inkscape:connector-curvature="0" />
  </g>
  <g
     id="g126"
     inkscape:groupmode="layer"
     inkscape:label="newlayer"
     transform="translate(-0.5,-0.5)" />
  <g
     id="g359"
     inkscape:groupmode="layer"
     inkscape:label="newlayer"
     transform="translate(-0.5,-0.5)" />
  <g
     id="g878"
     inkscape:groupmode="layer"
     inkscape:label="newlayer"
     transform="translate(-0.5,-0.5)" />
</svg>
