<?xml version="1.0" encoding="UTF-8" standalone="no"?>
<!-- Created with Inkscape (http://www.inkscape.org/) -->

<svg
   xmlns:dc="http://purl.org/dc/elements/1.1/"
   xmlns:cc="http://creativecommons.org/ns#"
   xmlns:rdf="http://www.w3.org/1999/02/22-rdf-syntax-ns#"
   xmlns:svg="http://www.w3.org/2000/svg"
   xmlns="http://www.w3.org/2000/svg"
   xmlns:sodipodi="http://sodipodi.sourceforge.net/DTD/sodipodi-0.dtd"
   xmlns:inkscape="http://www.inkscape.org/namespaces/inkscape"
   sodipodi:docname="EgillAriboxVERK.svg"
   id="svg8"
   version="1.1"
   viewBox="0 0 210 297"
   height="297mm"
   width="210mm"
   inkscape:version="0.92.4 (5da689c313, 2019-01-14)">
  <defs
     id="defs2">
    <inkscape:path-effect
       effect="bspline"
       id="path-effect985"
       is_visible="true"
       weight="33.333333"
       steps="2"
       helper_size="0"
       apply_no_weight="true"
       apply_with_weight="true"
       only_selected="false" />
    <inkscape:path-effect
       effect="bspline"
       id="path-effect936"
       is_visible="true"
       weight="33.333333"
       steps="2"
       helper_size="0"
       apply_no_weight="true"
       apply_with_weight="true"
       only_selected="false" />
    <inkscape:perspective
       sodipodi:type="inkscape:persp3d"
       inkscape:vp_x="0 : 148.5 : 1"
       inkscape:vp_y="0 : 1000 : 0"
       inkscape:vp_z="210 : 148.5 : 1"
       inkscape:persp3d-origin="105 : 99 : 1"
       id="perspective916" />
  </defs>
  <sodipodi:namedview
     id="base"
     pagecolor="#ffffff"
     bordercolor="#666666"
     borderopacity="1.0"
     inkscape:pageopacity="0.0"
     inkscape:pageshadow="2"
     inkscape:zoom="0.7"
     inkscape:cx="618.77455"
     inkscape:cy="558.98833"
     inkscape:document-units="mm"
     inkscape:current-layer="layer1"
     showgrid="false"
     inkscape:window-width="1920"
     inkscape:window-height="1001"
     inkscape:window-x="-9"
     inkscape:window-y="-9"
     inkscape:window-maximized="1" />
  <metadata
     id="metadata5">
    <rdf:RDF>
      <cc:Work
         rdf:about="">
        <dc:format>image/svg+xml</dc:format>
        <dc:type
           rdf:resource="http://purl.org/dc/dcmitype/StillImage" />
        <dc:title></dc:title>
      </cc:Work>
    </rdf:RDF>
  </metadata>
  <g
     inkscape:label="Layer 1"
     inkscape:groupmode="layer"
     id="layer1">
    <path
       id="path815"
       inkscape:label="part"
       style="stroke:#000000;stroke-width:1;fill:none"
       d="M 48.1999998093,148.499999523 L 59.6277270638,148.499999523 L 59.6277270638,145.399999619 L 71.1904543209,145.399999619 L 71.1904543209,148.499999523 L 82.5731815746,148.499999523 L 82.5731815746,145.399999619 L 94.1359088317,145.399999619 L 94.1359088317,148.499999523 L 105.518636085,148.499999523 L 105.518636085,145.399999619 L 117.081363342,145.399999619 L 117.081363342,148.499999523 L 128.464090596,148.499999523 L 128.464090596,145.399999619 L 140.026817853,145.399999619 L 140.026817853,148.499999523 L 151.409545107,148.499999523 L 151.409545107,145.399999619 L 162.972272364,145.399999619 L 162.972272364,148.499999523 L 174.399999619,148.499999523 " />
    <path
       id="path817"
       inkscape:label="part"
       style="stroke:#000000;stroke-width:1;fill:none"
       d="M 109.749999762,160.844999556 L 109.749999762,176.154999491 L 112.849999666,176.154999491 L 112.849999666,160.844999556 L 109.749999762,160.844999556 " />
    <path
       id="path819"
       inkscape:label="part"
       style="stroke:#000000;stroke-width:1;fill:none"
       d="M 174.399999619,148.499999523 L 174.399999619,160.844999556 L 171.299999714,160.844999556 L 171.299999714,176.154999491 L 174.399999619,176.154999491 L 174.399999619,188.499999523 " />
    <path
       id="path821"
       inkscape:label="part"
       style="stroke:#000000;stroke-width:1;fill:none"
       d="M 174.399999619,188.499999523 L 162.972272364,188.499999523 L 162.972272364,191.599999428 L 151.409545107,191.599999428 L 151.409545107,188.499999523 L 140.026817853,188.499999523 L 140.026817853,191.599999428 L 128.464090596,191.599999428 L 128.464090596,188.499999523 L 117.081363342,188.499999523 L 117.081363342,191.599999428 L 105.518636085,191.599999428 L 105.518636085,188.499999523 L 94.1359088317,188.499999523 L 94.1359088317,191.599999428 L 82.5731815746,191.599999428 L 82.5731815746,188.499999523 L 71.1904543209,188.499999523 L 71.1904543209,191.599999428 L 59.6277270638,191.599999428 L 59.6277270638,188.499999523 L 48.1999998093,188.499999523 " />
    <path
       id="path823"
       inkscape:label="part"
       style="stroke:#000000;stroke-width:1;fill:none"
       d="M 48.1999998093,188.499999523 L 48.1999998093,176.154999491 L 51.2999997139,176.154999491 L 51.2999997139,160.844999556 L 48.1999998093,160.844999556 L 48.1999998093,148.499999523 " />
    <path
       id="path825"
       inkscape:label="part"
       style="stroke:#000000;stroke-width:1;fill:none"
       d="M 4.09999990463,51.2999997139 L 16.3549999356,51.2999997139 L 16.3549999356,48.1999998093 L 31.8449998737,48.1999998093 L 31.8449998737,51.2999997139 L 44.0999999046,51.2999997139 " />
    <path
       id="path827"
       inkscape:label="part"
       style="stroke:#000000;stroke-width:1;fill:none"
       d="M 44.0999999046,51.2999997139 L 44.0999999046,58.8438886761 L 47.1999998093,58.8438886761 L 47.1999998093,69.6227775455 L 44.0999999046,69.6227775455 L 44.0999999046,80.2216664115 L 47.1999998093,80.2216664115 L 47.1999998093,91.0005552809 L 44.0999999046,91.0005552809 L 44.0999999046,101.599444147 L 47.1999998093,101.599444147 L 47.1999998093,112.378333016 L 44.0999999046,112.378333016 L 44.0999999046,122.977221882 L 47.1999998093,122.977221882 L 47.1999998093,133.756110752 L 44.0999999046,133.756110752 L 44.0999999046,141.299999714 " />
    <path
       id="path829"
       inkscape:label="part"
       style="stroke:#000000;stroke-width:1;fill:none"
       d="M 44.0999999046,141.299999714 L 31.8449998737,141.299999714 L 31.8449998737,144.399999619 L 16.3549999356,144.399999619 L 16.3549999356,141.299999714 L 4.09999990463,141.299999714 " />
    <path
       id="path831"
       inkscape:label="part"
       style="stroke:#000000;stroke-width:1;fill:none"
       d="M 4.09999990463,141.299999714 L 4.09999990463,133.756110752 L 1.0,133.756110752 L 1.0,122.977221882 L 4.09999990463,122.977221882 L 4.09999990463,112.378333016 L 1.0,112.378333016 L 1.0,101.599444147 L 4.09999990463,101.599444147 L 4.09999990463,91.0005552809 L 1.0,91.0005552809 L 1.0,80.2216664115 L 4.09999990463,80.2216664115 L 4.09999990463,69.6227775455 L 1.0,69.6227775455 L 1.0,58.8438886761 L 4.09999990463,58.8438886761 L 4.09999990463,51.2999997139 " />
    <path
       id="path833"
       inkscape:label="part"
       style="fill:none;stroke:#000000;stroke-width:1"
       d="M 1.4963827,202.5423 H 13.751383 v -3.1 h 15.49 v 3.1 h 12.255"
       inkscape:connector-curvature="0" />
    <path
       id="path835"
       inkscape:label="part"
       style="fill:none;stroke:#000000;stroke-width:1"
       d="m 41.496383,202.5423 -12.170833,7.54389 v 0 10.77889 0 10.59889 0 10.77888 0 10.59889 10.77889 0 10.59889 0 10.77889 0 l 12.170833,7.54389"
       inkscape:connector-curvature="0"
       sodipodi:nodetypes="ccccccccccccccccc" />
    <path
       id="path837"
       inkscape:label="part"
       style="fill:none;stroke:#000000;stroke-width:1"
       d="m 41.496383,292.5423 h -12.255 v 3.1 h -15.49 v -3.1 H 1.4963827"
       inkscape:connector-curvature="0" />
    <path
       id="path839"
       inkscape:label="part"
       style="fill:none;stroke:#000000;stroke-width:1"
       d="m 1.4963827,292.5423 v -7.54389 0 -10.77889 0 -10.59889 0 -10.77889 0 -10.59888 0 -10.77889 0 -10.59889 0 -10.77889 0 -7.54389"
       inkscape:connector-curvature="0" />
    <path
       id="path841"
       inkscape:label="part"
       style="stroke:#000000;stroke-width:1;fill:none"
       d="M 48.1999998093,48.1999998093 L 59.7177270655,48.1999998093 L 59.7177270655,51.2999997139 L 71.1004543192,51.2999997139 L 71.1004543192,48.1999998093 L 82.6631815763,48.1999998093 L 82.6631815763,51.2999997139 L 94.04590883,51.2999997139 L 94.04590883,48.1999998093 L 105.608636087,48.1999998093 L 105.608636087,51.2999997139 L 116.991363341,51.2999997139 L 116.991363341,48.1999998093 L 128.554090598,48.1999998093 L 128.554090598,51.2999997139 L 139.936817852,51.2999997139 L 139.936817852,48.1999998093 L 151.499545109,48.1999998093 L 151.499545109,51.2999997139 L 162.882272362,51.2999997139 L 162.882272362,48.1999998093 L 174.399999619,48.1999998093 " />
    <path
       id="path843"
       inkscape:label="part"
       style="stroke:#000000;stroke-width:1;fill:none"
       d="M 174.399999619,48.1999998093 L 174.399999619,58.9338886778 L 171.299999714,58.9338886778 L 171.299999714,69.5327775438 L 174.399999619,69.5327775438 L 174.399999619,80.3116664132 L 171.299999714,80.3116664132 L 171.299999714,90.9105552792 L 174.399999619,90.9105552792 L 174.399999619,101.689444149 L 171.299999714,101.689444149 L 171.299999714,112.288333015 L 174.399999619,112.288333015 L 174.399999619,123.067221884 L 171.299999714,123.067221884 L 171.299999714,133.66611075 L 174.399999619,133.66611075 L 174.399999619,144.399999619 " />
    <path
       id="path845"
       inkscape:label="part"
       style="stroke:#000000;stroke-width:1;fill:none"
       d="M 174.399999619,144.399999619 L 162.882272362,144.399999619 L 162.882272362,141.299999714 L 151.499545109,141.299999714 L 151.499545109,144.399999619 L 139.936817852,144.399999619 L 139.936817852,141.299999714 L 128.554090598,141.299999714 L 128.554090598,144.399999619 L 116.991363341,144.399999619 L 116.991363341,141.299999714 L 105.608636087,141.299999714 L 105.608636087,144.399999619 L 94.04590883,144.399999619 L 94.04590883,141.299999714 L 82.6631815763,141.299999714 L 82.6631815763,144.399999619 L 71.1004543192,144.399999619 L 71.1004543192,141.299999714 L 59.7177270655,141.299999714 L 59.7177270655,144.399999619 L 48.1999998093,144.399999619 " />
    <path
       id="path847"
       inkscape:label="part"
       style="stroke:#000000;stroke-width:1;fill:none"
       d="M 48.1999998093,144.399999619 L 48.1999998093,133.66611075 L 51.2999997139,133.66611075 L 51.2999997139,123.067221884 L 48.1999998093,123.067221884 L 48.1999998093,112.288333015 L 51.2999997139,112.288333015 L 51.2999997139,101.689444149 L 48.1999998093,101.689444149 L 48.1999998093,90.9105552792 L 51.2999997139,90.9105552792 L 51.2999997139,80.3116664132 L 48.1999998093,80.3116664132 L 48.1999998093,69.5327775438 L 51.2999997139,69.5327775438 L 51.2999997139,58.9338886778 L 48.1999998093,58.9338886778 L 48.1999998093,48.1999998093 " />
    <path
       id="path849"
       inkscape:label="part"
       style="stroke:#000000;stroke-width:1;fill:none"
       d="M 178.499999523,51.2999997139 L 190.754999554,51.2999997139 L 190.754999554,48.1999998093 L 206.244999492,48.1999998093 L 206.244999492,51.2999997139 L 218.499999523,51.2999997139 " />
    <path
       id="path851"
       inkscape:label="part"
       style="stroke:#000000;stroke-width:1;fill:none"
       d="M 218.499999523,51.2999997139 L 218.499999523,58.8438886761 L 221.599999428,58.8438886761 L 221.599999428,69.6227775455 L 218.499999523,69.6227775455 L 218.499999523,80.2216664115 L 221.599999428,80.2216664115 L 221.599999428,91.0005552809 L 218.499999523,91.0005552809 L 218.499999523,101.599444147 L 221.599999428,101.599444147 L 221.599999428,112.378333016 L 218.499999523,112.378333016 L 218.499999523,122.977221882 L 221.599999428,122.977221882 L 221.599999428,133.756110752 L 218.499999523,133.756110752 L 218.499999523,141.299999714 " />
    <path
       id="path853"
       inkscape:label="part"
       style="stroke:#000000;stroke-width:1;fill:none"
       d="M 218.499999523,141.299999714 L 206.244999492,141.299999714 L 206.244999492,144.399999619 L 190.754999554,144.399999619 L 190.754999554,141.299999714 L 178.499999523,141.299999714 " />
    <path
       id="path855"
       inkscape:label="part"
       style="stroke:#000000;stroke-width:1;fill:none"
       d="M 178.499999523,141.299999714 L 178.499999523,133.756110752 L 175.399999619,133.756110752 L 175.399999619,122.977221882 L 178.499999523,122.977221882 L 178.499999523,112.378333016 L 175.399999619,112.378333016 L 175.399999619,101.599444147 L 178.499999523,101.599444147 L 178.499999523,91.0005552809 L 175.399999619,91.0005552809 L 175.399999619,80.2216664115 L 178.499999523,80.2216664115 L 178.499999523,69.6227775455 L 175.399999619,69.6227775455 L 175.399999619,58.8438886761 L 178.499999523,58.8438886761 L 178.499999523,51.2999997139 " />
    <path
       id="path857"
       inkscape:label="part"
       style="fill:none;stroke:#000000;stroke-width:1"
       d="m 222.6,48.2 h 11.51773 v 3.1 h 11.38272 v -3.1 h 11.56273 v 3.1 h 11.38273 v -5.216667 h 11.56273 V 51.3 h 11.38272 v -5.216667 h 11.56273 V 51.3 h 11.38273 v -3.1 h 11.56272 v 3.1 h 11.38273 V 48.2 H 348.8"
       inkscape:connector-curvature="0"
       sodipodi:nodetypes="cccccccccccccccccccccc" />
    <path
       id="path859"
       inkscape:label="part"
       style="stroke:#000000;stroke-width:1;fill:none"
       d="M 348.799999237,48.1999998093 L 348.799999237,58.9338886778 L 345.699999332,58.9338886778 L 345.699999332,69.5327775438 L 348.799999237,69.5327775438 L 348.799999237,80.3116664132 L 345.699999332,80.3116664132 L 345.699999332,90.9105552792 L 348.799999237,90.9105552792 L 348.799999237,101.689444149 L 345.699999332,101.689444149 L 345.699999332,112.288333015 L 348.799999237,112.288333015 L 348.799999237,123.067221884 L 345.699999332,123.067221884 L 345.699999332,133.66611075 L 348.799999237,133.66611075 L 348.799999237,144.399999619 " />
    <path
       id="path861"
       inkscape:label="part"
       style="stroke:#000000;stroke-width:1;fill:none"
       d="M 348.799999237,144.399999619 L 337.282271981,144.399999619 L 337.282271981,141.299999714 L 325.899544727,141.299999714 L 325.899544727,144.399999619 L 314.33681747,144.399999619 L 314.33681747,141.299999714 L 302.954090216,141.299999714 L 302.954090216,144.399999619 L 291.391362959,144.399999619 L 291.391362959,141.299999714 L 280.008635706,141.299999714 L 280.008635706,144.399999619 L 268.445908448,144.399999619 L 268.445908448,141.299999714 L 257.063181195,141.299999714 L 257.063181195,144.399999619 L 245.500453938,144.399999619 L 245.500453938,141.299999714 L 234.117726684,141.299999714 L 234.117726684,144.399999619 L 222.599999428,144.399999619 " />
    <path
       id="path863"
       inkscape:label="part"
       style="stroke:#000000;stroke-width:1;fill:none"
       d="M 222.599999428,144.399999619 L 222.599999428,133.66611075 L 225.699999332,133.66611075 L 225.699999332,123.067221884 L 222.599999428,123.067221884 L 222.599999428,112.288333015 L 225.699999332,112.288333015 L 225.699999332,101.689444149 L 222.599999428,101.689444149 L 222.599999428,90.9105552792 L 225.699999332,90.9105552792 L 225.699999332,80.3116664132 L 222.599999428,80.3116664132 L 222.599999428,69.5327775438 L 225.699999332,69.5327775438 L 225.699999332,58.9338886778 L 222.599999428,58.9338886778 L 222.599999428,48.1999998093 " />
    <path
       id="path865"
       inkscape:label="part"
       style="stroke:#000000;stroke-width:1;fill:none"
       d="M 48.1999998093,4.09999990463 L 59.6277270638,4.09999990463 L 59.6277270638,1.0 L 71.1904543209,1.0 L 71.1904543209,4.09999990463 L 82.5731815746,4.09999990463 L 82.5731815746,1.0 L 94.1359088317,1.0 L 94.1359088317,4.09999990463 L 105.518636085,4.09999990463 L 105.518636085,1.0 L 117.081363342,1.0 L 117.081363342,4.09999990463 L 128.464090596,4.09999990463 L 128.464090596,1.0 L 140.026817853,1.0 L 140.026817853,4.09999990463 L 151.409545107,4.09999990463 L 151.409545107,1.0 L 162.972272364,1.0 L 162.972272364,4.09999990463 L 174.399999619,4.09999990463 " />
    <path
       id="path867"
       inkscape:label="part"
       style="stroke:#000000;stroke-width:1;fill:none"
       d="M 109.749999762,16.4449999373 L 109.749999762,31.754999872 L 112.849999666,31.754999872 L 112.849999666,16.4449999373 L 109.749999762,16.4449999373 " />
    <path
       id="path869"
       inkscape:label="part"
       style="stroke:#000000;stroke-width:1;fill:none"
       d="M 174.399999619,4.09999990463 L 174.399999619,16.4449999373 L 171.299999714,16.4449999373 L 171.299999714,31.754999872 L 174.399999619,31.754999872 L 174.399999619,44.0999999046 " />
    <path
       id="path871"
       inkscape:label="part"
       style="stroke:#000000;stroke-width:1;fill:none"
       d="M 174.399999619,44.0999999046 L 162.972272364,44.0999999046 L 162.972272364,47.1999998093 L 151.409545107,47.1999998093 L 151.409545107,44.0999999046 L 140.026817853,44.0999999046 L 140.026817853,47.1999998093 L 128.464090596,47.1999998093 L 128.464090596,44.0999999046 L 117.081363342,44.0999999046 L 117.081363342,47.1999998093 L 105.518636085,47.1999998093 L 105.518636085,44.0999999046 L 94.1359088317,44.0999999046 L 94.1359088317,47.1999998093 L 82.5731815746,47.1999998093 L 82.5731815746,44.0999999046 L 71.1904543209,44.0999999046 L 71.1904543209,47.1999998093 L 59.6277270638,47.1999998093 L 59.6277270638,44.0999999046 L 48.1999998093,44.0999999046 " />
    <path
       id="path873"
       inkscape:label="part"
       style="stroke:#000000;stroke-width:1;fill:none"
       d="M 48.1999998093,44.0999999046 L 48.1999998093,31.754999872 L 51.2999997139,31.754999872 L 51.2999997139,16.4449999373 L 48.1999998093,16.4449999373 L 48.1999998093,4.09999990463 " />
    <text
       xml:space="preserve"
       style="font-style:normal;font-weight:normal;font-size:10.58333302px;line-height:1.25;font-family:sans-serif;letter-spacing:0px;word-spacing:0px;fill:#000000;fill-opacity:1;stroke:none;stroke-width:0.26458332"
       x="258.98416"
       y="93.875145"
       id="text940"><tspan
         sodipodi:role="line"
         id="tspan938"
         x="258.98416"
         y="103.53064"
         style="stroke-width:0.26458332" /></text>
    <text
       xml:space="preserve"
       style="font-style:normal;font-weight:normal;font-size:10.58333302px;line-height:1.25;font-family:sans-serif;letter-spacing:0px;word-spacing:0px;fill:#000000;fill-opacity:1;stroke:none;stroke-width:0.26458332"
       x="274.7887"
       y="169.24405"
       id="text1824"><tspan
         sodipodi:role="line"
         id="tspan1822"
         x="274.7887"
         y="178.89955"
         style="stroke-width:0.26458332" /></text>
    <text
       xml:space="preserve"
       style="font-style:normal;font-weight:normal;font-size:21.97135162px;line-height:1.25;font-family:sans-serif;letter-spacing:0px;word-spacing:0px;fill:#0000ff;fill-opacity:1;stroke:none;stroke-width:0.54928374;"
       x="246.85666"
       y="141.21524"
       id="text1843"
       transform="scale(1.1181698,0.89431856)"><tspan
         sodipodi:role="line"
         id="tspan1841"
         x="246.85666"
         y="141.21524"
         style="stroke-width:0.54928374;fill:#0000ff;">Egill</tspan></text>
    <text
       xml:space="preserve"
       style="font-style:normal;font-weight:normal;font-size:11.62333202px;line-height:1.25;font-family:sans-serif;letter-spacing:0px;word-spacing:0px;fill:#0000ff;fill-opacity:1;stroke:none;stroke-width:0.29058328;"
       x="287.25357"
       y="107.19926"
       id="text1847"
       transform="scale(0.96842509,1.0326044)"><tspan
         sodipodi:role="line"
         id="tspan1845"
         x="287.25357"
         y="107.19926"
         style="stroke-width:0.29058328;fill:#0000ff;">SP</tspan></text>
    <path
       style="fill:#0000ff;stroke-width:0.09889376;stroke:none;stroke-opacity:1"
       d="m 242.39677,126.87728 v -0.79277 h -0.69393 -0.69393 v -1.58552 -1.58554 h 1.38786 1.38786 v -0.79276 -0.79276 h -0.69393 -0.69393 v -1.58553 -1.58553 h 0.69393 0.69393 v -0.79277 -0.79277 h -0.69393 -0.69393 v -0.79276 -0.79277 h -0.69393 -0.69393 v -0.79276 -0.79276 h -0.69393 -0.69393 v -0.79277 -0.79276 h -0.69394 -0.69393 v -2.37829 -2.3783 h 0.69393 0.69394 v -1.58552 -1.58553 h 0.69393 0.69393 v -0.79277 -0.79276 h 0.69393 0.69393 v -0.79276 -0.79277 h 0.69393 0.69393 v -0.792769 -0.792772 h -0.69393 -0.69393 v -2.378294 -2.378294 h 0.69393 0.69393 v -0.792758 -0.792767 h -0.69393 -0.69393 v -3.17106 -3.171053 h 0.69393 0.69393 v -1.585534 -1.585526 h 0.69393 0.69393 v -0.792768 -0.792758 h 1.38786 1.38786 v -0.792759 -0.792776 h 6.24538 6.24537 v 0.792776 0.792759 h 1.38786 1.38786 v 0.792758 0.792768 h 0.69393 0.69393 v 1.585526 1.585534 h 0.69394 0.69393 v 3.171053 3.17106 h -0.69393 -0.69394 v 0.792767 0.792758 h 0.69394 0.69393 v 2.378294 2.378294 h -0.69393 -0.69394 v 0.792772 0.792769 h 0.69394 0.69393 v 0.79277 0.79276 h 0.69393 0.69393 v 0.79276 0.79277 h 0.69393 0.69393 v 1.58553 1.58552 h 0.69393 0.69393 v 2.3783 2.37829 h -0.69393 -0.69393 v 0.79276 0.79277 h -0.69393 -0.69393 v 0.79276 0.79276 h -0.69393 -0.69393 v 0.79277 0.79276 h -0.69393 -0.69394 v 0.79277 0.79277 h 0.69394 0.69393 v 1.58553 1.58553 h -0.69393 -0.69394 v 0.79276 0.79276 h 1.38787 1.38786 v 1.58554 1.58552 h -0.69393 -0.69393 v 0.79277 0.79276 h -3.46966 -3.46965 v -0.79276 -0.79277 h -1.38786 -1.38786 v -2.37829 -2.37829 h -0.69393 -0.69393 v -0.79277 -0.79276 h -0.69393 -0.69393 v 0.79276 0.79277 h -0.69393 -0.69394 v 2.37829 2.37829 h -1.38786 -1.38786 v 0.79277 0.79276 h -3.46965 -3.46965 z m 6.9393,-1.58552 v -0.79277 h 0.69393 0.69393 v -0.79277 -0.79277 h -2.77572 -2.77572 v 0.79277 0.79277 h -1.38786 -1.38786 v 0.79277 0.79275 h 3.46965 3.46965 z m 16.65434,0 v -0.79277 h -1.38787 -1.38786 v -0.79277 -0.79277 h -2.77572 -2.77572 v 0.79277 0.79277 h 0.69393 0.69393 v 0.79277 0.79275 h 3.46965 3.46966 z m -8.32717,-12.68425 v -0.79276 h -0.69393 -0.69393 v -0.79277 -0.79276 h 0.69393 0.69393 v -1.58552 -1.58554 h -1.38786 -1.38786 v -0.79275 -0.79277 h 2.08179 2.08179 v 0.79277 0.79275 h 1.38786 1.38786 v -0.79275 -0.79277 h 0.69393 0.69393 v -0.79276 -0.79277 h -1.38786 -1.38786 v 0.79277 0.79276 h -0.69393 -0.69393 v -0.79276 -0.79277 h -2.08179 -2.08179 v 0.79277 0.79276 h -0.69393 -0.69393 v -0.79276 -0.79277 h -2.0818 -2.08179 v 0.79277 0.79276 h -0.69393 -0.69393 v -0.79276 -0.79277 h -1.38786 -1.38786 v 0.79277 0.79276 h 0.69393 0.69393 v 0.79277 0.79275 h 1.38786 1.38786 v -0.79275 -0.79277 h 2.08179 2.0818 v 0.79277 0.79275 h -1.38787 -1.38786 v 1.58554 1.58552 h 0.69393 0.69393 v 0.79276 0.79277 h -0.69393 -0.69393 v 0.79276 0.79277 h 3.46966 3.46965 z m -4.16358,-4.75658 v -0.79277 h 0.69393 0.69393 v 0.79277 0.79277 h -0.69393 -0.69393 z m 5.55144,-6.34211 v -0.79277 h 1.38786 1.38786 v -0.792769 -0.792772 h 1.38786 1.38786 V 97.54499 95.959447 h -0.69393 -0.69393 v -1.585526 -1.585525 h 0.69393 0.69393 v -3.17106 -3.171053 h -0.69393 -0.69393 v -1.585534 -1.585526 h -1.38786 -1.38786 v -0.792768 -0.792758 h -6.24537 -6.24538 v 0.792758 0.792768 h -1.38786 -1.38786 v 1.585526 1.585534 h -0.69393 -0.69393 v 3.171053 3.17106 h 0.69393 0.69393 v 1.585525 1.585526 h -0.69393 -0.69393 v 1.585543 1.585519 h 1.38786 1.38786 v 0.792772 0.792769 h 1.38786 1.38786 v 0.79277 0.79276 h 4.85752 4.85751 z m -9.71503,-1.585539 v -0.792772 h -0.69393 -0.69393 V 98.33775 97.54499 h -0.69393 -0.69393 v -1.585543 -1.585526 h 0.69393 0.69393 v 0.792777 0.792749 h 6.24538 6.24537 v -0.792749 -0.792777 h 0.69393 0.69393 v 1.585526 1.585543 h -0.69393 -0.69393 v 0.79276 0.792759 h -0.69393 -0.69393 v 0.792772 0.792769 h -4.85751 -4.85752 z m 1.38786,-1.585531 V 97.54499 H 250.03 249.33607 v 0.79276 0.792759 h 0.69393 0.69393 z m 2.77573,0 v -0.79276 h -0.69393 -0.69394 v 0.79276 0.792759 h 0.69394 0.69393 z m 2.77572,0 v -0.79276 h -0.69393 -0.69393 v 0.79276 0.792759 h 0.69393 0.69393 z m 2.77572,0 v -0.79276 h -0.69393 -0.69393 v 0.79276 0.792759 h 0.69393 0.69393 z m -6.93931,-4.756587 v -0.792767 h 0.69394 0.69393 V 91.995628 91.20287 h 0.69393 0.69393 v 0.792758 0.792768 h 0.69393 0.69393 v 0.792767 0.792758 h -2.08179 -2.0818 z m -5.55144,-3.17106 v -2.378285 h 2.08179 2.08179 v 2.378285 2.378293 h -2.08179 -2.08179 z m 11.10289,0 v -2.378285 h 2.08179 2.08179 v 2.378285 2.378293 h -2.08179 -2.08179 z"
       id="path1860"
       inkscape:connector-curvature="0" />
  </g>
  <g
     id="g126"
     inkscape:groupmode="layer"
     inkscape:label="newlayer" />
  <g
     id="g359"
     inkscape:groupmode="layer"
     inkscape:label="newlayer" />
  <g
     id="g878"
     inkscape:groupmode="layer"
     inkscape:label="newlayer" />
</svg>
